<?xml version="1.0" standalone="no"?><!DOCTYPE svg PUBLIC "-//W3C//DTD SVG 1.1//EN" "http://www.w3.org/Graphics/SVG/1.1/DTD/svg11.dtd"><svg t="1544165255876" class="icon" style="" viewBox="0 0 1024 1024" version="1.1" xmlns="http://www.w3.org/2000/svg" p-id="3699" xmlns:xlink="http://www.w3.org/1999/xlink" width="200" height="200"><defs><style type="text/css"></style></defs><path d="M550.570667 782.149818v-120.335515l0.496485-0.341333-0.496485-0.713697V245.015273c134.578424 15.484121 239.460848 129.954909 239.460848 268.567272 0 138.674424-104.882424 253.145212-239.460848 268.567273z m-62.060606-76.520727v76.520727a267.419152 267.419152 0 0 1-78.258425-21.348848l78.258425-55.202909z m0-460.582788v29.633939l-234.43394 187.516122a270.987636 270.987636 0 0 1 234.43394-217.150061z m0 205.234424L270.584242 619.333818a269.467152 269.467152 0 0 1-19.704242-75.124363l237.630061-190.029576v96.100848z m-186.616243 223.263031l186.616243-144.756364v100.848485l-136.223031 96.131879a272.228848 272.228848 0 0 1-50.393212-52.224z m550.167273-159.930182c0-183.389091-149.131636-332.551758-332.520727-332.551758-183.389091 0-332.551758 149.193697-332.551758 332.520727 0 122.724848 66.963394 229.841455 166.105212 287.495758h0.062061a330.224485 330.224485 0 0 0 166.384485 45.08703c183.389091 0 332.551758-149.193697 332.551757-332.551757zM550.570667 139.636364v-93.090909a31.030303 31.030303 0 0 0-62.060606 0v93.090909a31.030303 31.030303 0 0 0 62.060606 0M519.540364 855.939879a31.030303 31.030303 0 0 0-31.030303 31.030303v93.090909a31.030303 31.030303 0 0 0 62.060606 0v-93.090909a31.030303 31.030303 0 0 0-31.030303-31.030303" p-id="3700"></path><path d="M251.221333 248.180364v0.03103c12.101818 12.101818 31.77503 12.101818 43.907879 0 12.101818-12.132848 12.101818-31.77503 0-43.907879H295.098182l-65.784243-65.784242-0.03103-0.031031a31.030303 31.030303 0 0 0-43.876848 43.876849v0.03103l65.784242 65.784243zM757.76 248.211394a31.030303 31.030303 0 0 0 43.876848 0l0.031031-0.03103 65.784242-65.784243 0.031031-0.03103a31.030303 31.030303 0 0 0-43.907879-43.876849l-65.784243 65.815273a31.030303 31.030303 0 0 0 0 43.907879M757.79103 812.06303l65.784243 65.784243h0.03103a30.999273 30.999273 0 1 0 43.876849-43.876849h-0.062061l-65.753212-65.846303a31.030303 31.030303 0 0 0-43.907879 43.907879h0.03103M171.783758 833.970424a31.030303 31.030303 0 1 0 43.876848 43.907879l65.784242-65.815273 0.062061-0.03103a31.030303 31.030303 0 0 0-43.907879-43.876848l-65.784242 65.815272h-0.03103M52.19297 558.545455h93.121939a31.030303 31.030303 0 0 0 0-62.060607h-106.744242a31.030303 31.030303 0 1 0 0 62.060607h13.653333zM868.848485 527.515152a31.030303 31.030303 0 0 0 31.030303 31.030303h93.090909a31.030303 31.030303 0 0 0 0-62.060607h-93.090909a31.030303 31.030303 0 0 0-31.030303 31.030304" p-id="3701"></path></svg>
