<?xml version="1.0" standalone="no"?><!DOCTYPE svg PUBLIC "-//W3C//DTD SVG 1.1//EN" "http://www.w3.org/Graphics/SVG/1.1/DTD/svg11.dtd"><svg t="1544665760171" class="icon" style="" viewBox="0 0 1024 1024" version="1.1" xmlns="http://www.w3.org/2000/svg" p-id="1487" xmlns:xlink="http://www.w3.org/1999/xlink" width="200" height="200"><defs><style type="text/css"></style></defs><path d="M962.676 881.34l-52-40.344-133.374-58.342-65.312-25.312-207.998-5.344-163.998-9.5-45.328 18.844-133.342 50.656-102.656 55.998-21.344 128h938.664z" fill="#434A54" p-id="1488"></path><path d="M790.99 289.002l-88.498-145-92.5-56-20.5-45.498-103-19-63.498 23.5-32 49.498-97 89.5-39.5 104.5-14.5 68.498 567.996 6z" fill="#FFCE54" p-id="1489"></path><path d="M339.994 644l-17 98.998 56 97.998 103.998-82.998zM676.992 644l-147 107.998 115 78 59.998-93z" fill="#656D78" p-id="1490"></path><path d="M267.994 365l-12 79 44 118 94.952 125.812 81.046 43.186h72l60.844-36.936 96.154-81.062 60-117v-131z" fill="#EAC6BB" p-id="1491"></path><path d="M562.68 857.34l12-55.998-62.688-49.124-52 54.468 4 62.56-20 128.094s134.686 1.344 138.686 0-19.998-140-19.998-140z" fill="#ED5564" p-id="1492"></path><path d="M920.426 815.374l-3.624-1.032c-52.938-14.218-70.844-27.876-94.436-36.844-57.25-21.812-85.5-39.5-99.406-51.938l-12.25-47.686-0.282-39.532c44.718-59.844 76.688-134.562 76.688-211.936 0-14.562-0.844-28.688-2.438-42.406h47.312c11.78 0 21.31-9.562 21.31-21.312 0-11.812-9.532-21.376-21.31-21.376h-21.312c0-127.342-79.75-236.06-191.998-278.998v-19.624c0-8.124-4.624-15.532-11.876-19.124-1.938-0.968-47.968-23.562-94.812-23.562s-92.89 22.594-94.828 23.562a21.366 21.366 0 0 0-11.844 19.124l0.016 19.624c-112.264 42.936-192.014 151.654-192.014 278.998H191.994c-11.78 0-21.328 9.562-21.328 21.376 0 11.75 9.546 21.312 21.328 21.312h47.312a367.04 367.04 0 0 0-2.422 42.406c0 77.374 31.954 152.092 76.672 211.936l-0.282 39.532-12.25 47.686c-13.89 12.438-42.124 30.124-99.422 51.938-23.578 8.968-41.484 22.624-94.42 36.844l-3.624 1.032c-48.186 15.938-80.608 60.624-80.608 111.06v97.562H1001.05v-97.562c0-50.438-32.436-95.124-80.624-111.06z m-239.558-82.188l-47.062 86.75-71.062-60.876c34.75-13.438 72.062-38.906 106.062-72.748l12.062 46.874z m-325.702-46.874c34.032 33.842 71.344 59.31 106.092 72.748l-71.092 60.876-47.046-86.75 12.046-46.874z m156.826 85.436l36.844 31.562-9.546 28.688h-54.594l-9.546-28.688 36.842-31.562zM330.978 160.316c21.89-21.876 47.046-39.312 74.376-51.812l0.016 83.592c0.016 11.782 9.562 21.344 21.344 21.344 11.782-0.032 21.328-9.562 21.328-21.376l-0.046-135.436c15.64-6.124 40.906-13.938 64-13.938 24.344 0 49.624 8.312 64 14v132.624c0 11.812 9.562 21.374 21.312 21.374a21.366 21.366 0 0 0 21.376-21.374V108.502c27.312 12.5 52.438 29.938 74.312 51.812 48.374 48.374 74.998 112.624 74.998 180.998h-512c0-68.372 26.626-132.622 74.984-180.996zM282.306 384h459.372a324.16 324.16 0 0 1 2.75 42.406c0 70.28-31.968 147-87.686 210.53-24.5 27.876-51.938 51.25-79.376 67.53-24.468 14.532-47.688 22.532-65.376 22.532s-40.906-8-65.374-22.532c-27.438-16.28-54.876-39.654-79.376-67.53-55.718-63.532-87.686-140.25-87.686-210.53 0.002-14.53 0.94-28.656 2.752-42.406zM65.604 981.308v-54.876c0-31.812 20.328-59.968 50.656-70.312l2.39-0.688c39.89-10.75 61.922-21.282 79.624-29.748 6.844-3.312 12.766-6.124 18.516-8.312 30.656-11.688 68.75-27.718 97.406-48l51.046 94.124c3.062 5.688 8.532 9.624 14.876 10.812 1.282 0.25 2.578 0.376 3.876 0.376 5.046 0 9.984-1.812 13.876-5.156l42.296-36.218 7.328 22-18 126H65.604z m446.388 0h-39.406l15.25-106.624h48.312l15.25 106.624h-39.406z m446.372 0H594.492l-18-126 7.312-22 42.312 36.218a21.25 21.25 0 0 0 13.876 5.156c1.312 0 2.594-0.124 3.876-0.376 6.344-1.188 11.812-5.124 14.876-10.812l51.06-94.124c28.656 20.312 66.75 36.312 97.438 48 5.688 2.188 11.624 5 18.468 8.312 17.716 8.466 39.716 18.998 79.624 29.748l2.406 0.688c30.312 10.344 50.624 38.5 50.624 70.312v54.878z" p-id="1493"></path></svg>