<?xml version="1.0" standalone="no"?><!DOCTYPE svg PUBLIC "-//W3C//DTD SVG 1.1//EN" "http://www.w3.org/Graphics/SVG/1.1/DTD/svg11.dtd"><svg t="1544518613799" class="icon" style="" viewBox="0 0 1024 1024" version="1.1" xmlns="http://www.w3.org/2000/svg" p-id="4344" xmlns:xlink="http://www.w3.org/1999/xlink" width="200" height="200"><defs><style type="text/css"></style></defs><path d="M348.908016 412.918377c0-13.703093-14.848173-28.550243-28.550243-28.550243-14.848173 0-29.123294 14.848173-29.123294 28.550243 0 14.848173 14.275121 29.696346 29.123294 29.696346C334.059843 442.614723 348.908016 427.76655 348.908016 412.918377L348.908016 412.918377zM348.908016 238.751662c0-14.848173-14.848173-29.123294-28.550243-29.123294-14.848173 0-29.123294 14.275121-29.123294 29.123294 0 14.848173 14.275121 29.123294 29.123294 29.123294C334.059843 267.874957 348.908016 253.599835 348.908016 238.751662L348.908016 238.751662zM348.908016 770.389932c0-14.848173-14.848173-29.124318-28.550243-29.124318-14.848173 0-29.123294 14.276145-29.123294 29.124318s14.275121 29.122271 29.123294 29.122271C334.059843 799.512203 348.908016 785.238105 348.908016 770.389932L348.908016 770.389932zM348.908016 595.650165c0-14.83794-14.848173-29.686113-28.550243-29.686113-14.848173 0-29.123294 14.848173-29.123294 29.686113 0 14.284331 14.275121 29.122271 29.123294 29.122271C334.059843 624.772436 348.908016 609.934496 348.908016 595.650165L348.908016 595.650165zM873.70139 923.43663 224.995869 923.43663 224.995869 799.512203l-101.645005 0 0-58.246589 101.645005 0L224.995869 624.772436l-101.645005 0 0-58.808384 101.645005 0L224.995869 442.614723l-101.645005 0 0-58.246589 101.645005 0 0-116.493178-101.645005 0 0-58.246589 101.645005 0L224.995869 100.564393l648.705522 0 0 336.914356 1.134847 1.134847 52.53654 52.53654c13.712303 13.139252 13.712303 34.833343 0 46.825468l-31.404244 31.978319-22.267143-22.267143 0 43.972491 0.572028 0.574075-0.572028 0.561795L873.70139 923.43663zM796.04166 470.029096l77.659731 77.657684L873.70139 437.477726c-6.284123-6.284123-14.276145-9.139148-22.840194-9.139148-9.138124 0-16.566304 3.429099-22.840194 10.273994L796.04166 470.029096zM541.349957 724.70852l0 99.936083 99.936083 0 232.414327-231.850485 0-1.134847-99.936083-99.936083L541.349957 724.70852z" p-id="4345"></path></svg>