<?xml version="1.0" standalone="no"?><!DOCTYPE svg PUBLIC "-//W3C//DTD SVG 1.1//EN" "http://www.w3.org/Graphics/SVG/1.1/DTD/svg11.dtd"><svg t="1533172884448" class="icon" style="" viewBox="0 0 1024 1024" version="1.1" xmlns="http://www.w3.org/2000/svg" p-id="2553" xmlns:xlink="http://www.w3.org/1999/xlink" width="200" height="200"><defs><style type="text/css"></style></defs><path d="M890.40896 329.37984c-55.48032-66.70336-51.6096-123.94496-106.72128-233.08288C746.92608 23.59296 688.08704 0 657.5104 0c-30.35136 0-58.12224 66.60096-72.76544 111.47264-17.79712 54.39488-38.912 81.08032-72.8064 81.08032-33.85344 0-55.00928-26.68544-72.76544-81.08032C424.5504 66.56 396.75904 0 366.44864 0c-30.57664 0-89.41568 23.552-126.1568 96.29696-55.13216 109.13792-51.22048 166.37952-106.7008 233.08288-140.0832 168.40704-177.27488 491.08992-43.64288 587.79648 129.9456 94.1056 360.36608 111.5136 422.0928 111.5136 61.7472 0 292.18816-17.42848 422.07232-111.5136C1067.7248 820.51072 1030.51264 497.82784 890.40896 329.37984zM895.24224 851.31264C810.0864 949.69856 545.95584 957.72672 512 957.72672c-33.93536 0-298.0864-8.02816-383.24224-106.3936C22.016 728.064 95.25248 514.19136 167.58784 430.75584 248.25856 337.65376 400.7936 309.12512 512 309.12512c111.24736 0 263.76192 28.52864 344.49408 121.63072C928.768 514.23232 1002.00448 728.064 895.24224 851.31264z" p-id="2554" fill="#2c2c2c"></path><path d="M720.60928 719.58528c-88.24832 41.84064-147.88608 107.78624-164.9664 76.00128-16.56832-31.00672 76.04224-126.5664 150.40512-165.39648 65.51552-34.16064 155.11552-51.54816 179.52768-11.93984C905.64608 650.71104 810.43456 677.04832 720.60928 719.58528zM303.4112 719.58528c-89.82528-42.53696-184.97536-68.85376-164.9664-101.33504 24.43264-39.66976 114.03264-22.2208 179.5072 11.93984 74.36288 38.83008 167.0144 134.4512 150.36416 165.39648C451.31776 827.35104 391.65952 761.42592 303.4112 719.58528z" p-id="2555" fill="#2c2c2c"></path></svg>