<?xml version="1.0" standalone="no"?><!DOCTYPE svg PUBLIC "-//W3C//DTD SVG 1.1//EN" "http://www.w3.org/Graphics/SVG/1.1/DTD/svg11.dtd"><svg t="1544435383894" class="icon" style="" viewBox="0 0 1024 1024" version="1.1" xmlns="http://www.w3.org/2000/svg" p-id="2093" xmlns:xlink="http://www.w3.org/1999/xlink" width="200" height="200"><defs><style type="text/css"></style></defs><path d="M266.767 2.322c0 0-70.052-1.117-70.052 72.453l-0.362 874.203c0 0-6.572 72.119 66.78 72.119h494.711c0 0 67.89 1.065 67.89-69.181v-877.141c0.028 0 2.135-72.453-71.141-72.453v0M440.42 37.498h140.057v35.070h-140.057v-35.070zM387.882 37.498c9.705 0 17.535 7.811 17.535 17.508 0 9.705-7.811 17.588-17.535 17.588-9.657 0-17.489-7.857-17.489-17.588 0.019-9.697 7.831-17.508 17.489-17.508v0 0zM510.498 950.801c-23.025 0-40.771-22.179-33.285-46.381 3.203-10.355 11.442-18.705 21.759-22.033 24.211-7.809 46.556 10.164 46.556 33.29 0.001 19.409-15.694 35.124-35.027 35.124v0 0zM757.092 810.259h-493.23v-702.569h493.231v702.569h-0.001zM757.092 810.259z" p-id="2094"></path></svg>