<?xml version="1.0" standalone="no"?><!DOCTYPE svg PUBLIC "-//W3C//DTD SVG 1.1//EN" "http://www.w3.org/Graphics/SVG/1.1/DTD/svg11.dtd"><svg t="1544171357083" class="icon" style="" viewBox="0 0 1024 1024" version="1.1" xmlns="http://www.w3.org/2000/svg" p-id="8122" xmlns:xlink="http://www.w3.org/1999/xlink" width="200" height="200"><defs><style type="text/css"></style></defs><path d="M512 512m-512 0a512 512 0 1 0 1024 0 512 512 0 1 0-1024 0Z" fill="#26A69A" p-id="8123"></path><path d="M307.8144 654.1312L656.896 1003.52a512 512 0 0 0 362.9056-427.2128L822.8864 381.1328z" fill="#26998B" p-id="8124"></path><path d="M827.904 391.8848c2.3552-11.0592-34.7136-38.1952-70.3488-43.52s-77.824 12.1856-148.992 61.44C488.3456 492.6464 381.0304 568.4224 345.2928 593.92a22.7328 22.7328 0 0 1-25.6 0c-22.1184-14.336-66.7648-40.96-105.8816-37.1712a2.9696 2.9696 0 0 0-1.7408 5.12s77.5168 75.8784 92.16 87.8592 48.9472 13.1072 67.3792 2.048 453.12-245.1456 456.2944-259.8912z" fill="#FFFFFF" p-id="8125"></path><path d="M560.3328 442.7776l-213.0944-112.64a19.0464 19.0464 0 0 0-17.7152 3.6864 17.7152 17.7152 0 0 0-2.8672 16.896l156.3648 146.1248z" fill="#FFFFFF" p-id="8126"></path><path d="M775.9872 352.8704a154.112 154.112 0 0 0-39.424 26.624c-3.4816 3.3792-7.9872 6.5536-2.2528 10.24s9.4208 5.7344 15.6672 2.56a387.6864 387.6864 0 0 1 57.0368-24.6784 146.5344 146.5344 0 0 0-31.0272-14.7456z" fill="#42A5F5" p-id="8127"></path><path d="M513.536 475.4432a232.1408 232.1408 0 0 1-120.2176-62.5664l89.6 83.968zM822.8864 381.1328S537.2928 563.2 358.4 657.408a68.7104 68.7104 0 0 0 13.6192-5.4272c135.5776-73.3184 446.2592-244.5312 456.0896-260.096a12.9024 12.9024 0 0 0-5.2224-10.752z" fill="#FFA726" p-id="8128"></path><path d="M753.7664 364.3392a135.168 135.168 0 0 1 18.3296 17.6128 40.96 40.96 0 0 1-4.1984 1.9456l-19.5584-16.4864z" fill="#FFFFFF" p-id="8129"></path><path d="M485.7856 535.552m-7.2704 0a7.2704 7.2704 0 1 0 14.5408 0 7.2704 7.2704 0 1 0-14.5408 0Z" fill="#42A5F5" p-id="8130"></path><path d="M519.4752 514.56m-7.2704 0a7.2704 7.2704 0 1 0 14.5408 0 7.2704 7.2704 0 1 0-14.5408 0Z" fill="#42A5F5" p-id="8131"></path><path d="M553.0624 492.8512m-7.2704 0a7.2704 7.2704 0 1 0 14.5408 0 7.2704 7.2704 0 1 0-14.5408 0Z" fill="#42A5F5" p-id="8132"></path><path d="M585.8304 471.4496m-7.2704 0a7.2704 7.2704 0 1 0 14.5408 0 7.2704 7.2704 0 1 0-14.5408 0Z" fill="#42A5F5" p-id="8133"></path><path d="M622.592 449.7408m-7.2704 0a7.2704 7.2704 0 1 0 14.5408 0 7.2704 7.2704 0 1 0-14.5408 0Z" fill="#42A5F5" p-id="8134"></path></svg>