<?xml version="1.0" standalone="no"?><!DOCTYPE svg PUBLIC "-//W3C//DTD SVG 1.1//EN" "http://www.w3.org/Graphics/SVG/1.1/DTD/svg11.dtd"><svg t="1545701938214" class="icon" style="" viewBox="0 0 1024 1024" version="1.1" xmlns="http://www.w3.org/2000/svg" p-id="10417" xmlns:xlink="http://www.w3.org/1999/xlink" width="200" height="200"><defs><style type="text/css"></style></defs><path d="M267.000353 200.678172V44.53021h489.971462v156.147962h44.53021V38.963933a38.963933 38.963933 0 0 0-38.963934-38.963933H261.434077a38.963933 38.963933 0 0 0-38.963933 38.963933v161.714239z" fill="#FFAE45" p-id="10418"></path><path d="M940.686761 668.203626H83.313239a38.963933 38.963933 0 0 1-38.963933-38.963934v-411.904438a38.963933 38.963933 0 0 1 38.963933-38.963933h857.373522a38.963933 38.963933 0 0 1 38.963933 38.963933v411.904438a38.963933 38.963933 0 0 1-38.963933 38.963934zM88.879515 623.673416h846.24097v-400.771886H88.879515z" fill="#FFAE45" p-id="10419"></path><path d="M244.76308 468.040334l534.459924 0 0 533.680646-534.459924 0 0-533.680646Z" fill="#FFD9B0" p-id="10420"></path><path d="M762.538091 1024H261.434077a38.963933 38.963933 0 0 1-38.963933-38.963933V484.739162a38.963933 38.963933 0 0 1 38.963933-38.963933h501.104014a38.963933 38.963933 0 0 1 38.963934 38.963933v500.296905a38.963933 38.963933 0 0 1-38.963934 38.963933z m-495.537738-44.53021h489.971462V490.305439H267.000353z" fill="#FFAE45" p-id="10421"></path><path d="M690.162585 579.254532h-356.241676a22.265105 22.265105 0 0 1 0-44.530209h356.241676a22.265105 22.265105 0 0 1 0 44.530209zM690.162585 757.152719h-356.241676a22.265105 22.265105 0 0 1 0-44.530209h356.241676a22.265105 22.265105 0 1 1 0 44.530209zM690.162585 935.050906h-356.241676a22.265105 22.265105 0 0 1 0-44.530209h356.241676a22.265105 22.265105 0 0 1 0 44.530209z" fill="#FFAE45" p-id="10422"></path></svg>